<?xml version="1.0" encoding="utf-8"?>
<!-- Generator: Adobe Illustrator 14.0.0, SVG Export Plug-In . SVG Version: 6.00 Build 43363)  -->
<!DOCTYPE svg PUBLIC "-//W3C//DTD SVG 1.0//EN" "http://www.w3.org/TR/2001/REC-SVG-20010904/DTD/svg10.dtd">
<svg version="1.0" id="Layer_1" xmlns="http://www.w3.org/2000/svg" xmlns:xlink="http://www.w3.org/1999/xlink" x="0px" y="0px"
	 width="1529.63px" height="1539.194px" viewBox="0 0 1529.63 1539.194" enable-background="new 0 0 1529.63 1539.194"
	 xml:space="preserve">
<path d="M1187.931,933.924c0,0-52.271,197.17-476.15,197.17c-423.873,0-429.589-162.12-429.083-175.55
	c5.21-138.074,227.746-86.119,227.746-86.119s-86.897,4.328-86.897,82.26c0,64.939,101.805,115.539,307.315,121.21
	C1149.09,1084.444,1187.931,933.924,1187.931,933.924"/>
<path d="M862.289,0c0,0,151.551,14.993,129.812,179.203c0,0,96.17,62.461,89.14,149.051c-7.04,86.584-71.97,188.938-278.994,223.264
	c0,0,120.265-32.923,124.654-99.879c4.7-71.438-118.681-101.742-118.681-168.844c0-67.105,152.86-76.596,140.58-189.48
	C940.67,18.708,862.289,0,862.289,0"/>
<path fill="#1095C2" d="M741.092,341.356c9.644-4.981-8.186-17.92-7.162-40.724c1.17-25.776,11.869-41.641-3.248-41.241
	c-11.835,0.313-29.35,22.546-26.472,45.182C707.087,327.207,728.74,347.736,741.092,341.356"/>
<path fill="#1095C2" d="M725.066,411.359c-12.104,7.963,18.999,16.162,26.467,40.051c8.438,27.002-0.923,46.539,20.967,41.717
	c17.14-3.767,33.941-31.865,20.838-54.442C780.24,416.106,740.578,401.168,725.066,411.359"/>
<path fill="#1095C2" d="M674.557,360.845c8.395-6.943-11.71-15.757-15.406-38.268c-4.182-25.448,3.003-43.268-11.695-39.622
	c-11.494,2.863-24.029,28.36-16.546,49.869C638.39,354.329,663.794,369.736,674.557,360.845"/>
<path d="M1158.13,800.358c-60.619-104.835-244.97-133.872-377.111-138.025c-114.944-3.611-261.144-11.542-261.144-52.808
	c0-56.148,163.405-23.711,161.3-92.965c-1.887-62.034-154.467-64.028-133.241-217.435c9.846-71.165,97.593-109.797,174.573-126.823
	c76.982-17.023,174.883-50.401,176.743-92.618c1.87-42.219-43.344-56.646-43.344-56.646s26.625,15.877,16.136,46.897
	c-10.49,31.028-46.526,33.19-152.84,35.533c-90.071,1.989-220.768,12.814-306.788,103.718
	c-90.131,95.258-75.76,251.112,124.402,313.541c0,0-216.017,37.114-211.958,157.293c4.024,119.415,143.126,148.108,359.372,152.602
	c219.35,4.556,302.45,26.378,302.45,78.082c0,41.92-66.49,65.51-167.515,69.109c-106.139,3.801-180.855-11.539-181.559-41.129
	c-0.947-39.729,101.024-20.2,101.024-20.2s-37.798-16.594-87.249-14.426c-35.291,1.541-59.682,19.386-60.404,42.205
	c-1.055,33.55,28.996,61.851,110.916,75.41c126.46,20.92,290.356,19.48,396.576-45.46
	C1177.71,927.774,1186.86,850.046,1158.13,800.358"/>
<path fill="#1095C2" d="M297.709,1357.354c0,21.029,3.816,26.489,21.747,26.489v6.55h-70.205v-6.55
	c18.237,0,22.414-4.29,22.414-22.21v-68.17c0-18.31-10.632-30-26.97-30c-15.198,0-26.212,7.4-39.125,26.1v75.58
	c0,14.41,5.697,18.7,22.408,18.7v6.55H155.5v-6.55c20.209-0.39,24.021-4.29,24.021-26.489v-179.891
	c0-17.97-4.957-20.71-24.021-20.71v-6.55l43.56-4.69h6.51v130.811c17.09-20.311,29.63-27.75,47.1-27.75
	c22.446,0,45.039,15.29,45.039,48.01V1357.354"/>
<path fill="#1095C2" d="M443.406,1321.764c0,33.44-13.699,64.931-45.654,64.931c-31.204,0-45.659-29.55-45.659-64.931
	c0-39.659,17.121-65.319,45.659-65.319C428.948,1256.444,443.406,1287.164,443.406,1321.764 M471.739,1321.764
	c0-41.989-31.756-73.189-73.987-73.189c-42.237,0-73.993,31.2-73.993,73.189c0,41.601,31.756,72.8,73.993,72.8
	C439.983,1394.563,471.739,1363.364,471.739,1321.764"/>
<path fill="#1095C2" d="M564.132,1290.784c-2.659-22.94-17.471-34.6-33.446-34.6c-13.36,0-22.524,7.39-22.524,18.659
	c0,34.99,71.011,25.66,71.011,76.99c0,22.93-19.471,42.47-42.682,42.47c-14.843,0-27.78-10.199-34.249-10.199
	c-4.948,0-8.368,4.289-8.751,9.42h-6.417v-47.141h6.417c5.707,28.78,26.637,40.051,43.302,40.051
	c13.364,0,23.675-10.11,23.675-23.721c0-38.49-71.56-27.99-71.56-74.65c0-21.379,18.495-39.76,41.042-39.76
	c14.054,0,18.23,6.7,27.344,6.7c3.42,0,6.078-1.97,7.995-6.7h6.553v42.48H564.132"/>
<path d="M793.884,1291.044c-2.664-22.94-17.479-34.6-33.446-34.6c-13.365,0-22.528,7.39-22.528,18.66
	c0,35,71.01,25.659,71.01,76.979c0,22.95-19.474,42.479-42.681,42.479c-14.843,0-27.781-10.209-34.25-10.209
	c-4.938,0-8.367,4.31-8.752,9.43h-6.415v-47.13h6.415c5.708,28.76,26.641,40.04,43.302,40.04c13.366,0,23.674-10.11,23.674-23.721
	c0-38.489-71.558-27.989-71.558-74.649c0-21.38,18.495-39.75,41.042-39.75c14.051,0,18.23,6.689,27.344,6.689
	c3.419,0,6.078-1.97,7.993-6.689h6.554v42.47H793.884"/>
<path d="M949.97,1298.094h-6.42c-5.739-24.899-22.989-40.859-45.609-40.859c-26.827,0-45.611,23.35-45.611,57.2
	c0,37.75,23.38,69.27,50.971,69.27c16.49,0,36.42-8.95,50.49-28.8v10.12c-14.449,20.239-35.149,30.37-59.685,30.37
	c-40.245,0-67.909-28.421-67.909-69.671c0-42.42,31.109-76.359,69.824-76.359c20.319,0,31.439,7.87,38.34,7.87
	c3.45,0,6.89-2.761,9.189-7.87h6.42V1298.094"/>
<path d="M1024.431,1364.324c0,15.229,4.58,19.52,22.5,19.52v6.55H975.5v-6.55c20.601,0,22.89-5.46,22.89-26.55v-75.35
	c0-20.301-4.959-22.65-27.84-22.65v-6.55l47.37-4.22h6.511v29.909c25.17-22.21,37-29.909,46.149-29.909
	c7.63,0,17.931,4.619,24.8,10.77l-10.3,24.6c-11.069-6.249-22.89-12.1-32.05-12.1c-8.77,0-16.391,4.68-28.6,16.79V1364.324"/>
<path d="M1163.64,1364.714c0,13.67,3.431,19.13,22.5,19.13v6.55h-74.109v-6.55c20.6,0,25.56-2.739,25.56-19.13v-84.72
	c0-19.13-5.72-20.7-25.56-20.7v-6.55l45.1-4.22h6.51V1364.714z M1167.351,1194.014c0,9.311-7.211,17.061-16.32,17.061
	c-9.1,0-16.689-7.75-16.689-17.061c0-9.29,7.59-16.66,16.689-16.66C1160.14,1177.354,1167.351,1184.724,1167.351,1194.014"/>
<path d="M1236.9,1281.864c12.54-14.84,22.8-20.69,36.47-20.69c25.07,0,42.93,26.94,42.93,64.03c0,34.35-18.239,60.51-42.17,60.51
	c-12.91,0-27.35-6.64-37.229-17.18V1281.864z M1210.86,1472.914c0,15.19-5.34,19.09-23.65,19.09v6.55h72.11v-6.55
	c-19,0-22.42-6.24-22.42-22.99v-90.72c15.2,12.061,26.22,16.32,40.649,16.32c38.36,0,67.08-31.54,67.08-74.101
	c0-41.38-26.04-71.989-61.01-71.989c-17.09,0-29.62,6.13-46.72,23.189v-23.189h-6.511l-43.18,4.22v6.55
	c20.221,0,23.65,2.74,23.65,21.46V1472.914"/>
<path d="M1400.95,1249.874h46.91v10.22h-46.91v88.79c0,19.08,9.53,28.811,24.41,28.811c9.92,0,17.16-3.88,25.17-13.23l4.2,5.061
	c-11.82,15.229-25.55,23.069-40.811,23.069c-22.92,0-39.01-16.45-39.01-40.2v-92.3h-25.56v-6.68c18.31-9.38,33.6-26.13,45.09-49.9
	h6.51V1249.874"/>
<path fill="#1095C2" d="M642.96,1251.844h46.913v10.221H642.96v88.79c0,19.09,9.537,28.819,24.411,28.819
	c9.914,0,17.168-3.899,25.174-13.239l4.195,5.06c-11.821,15.24-25.554,23.069-40.814,23.069c-22.917,0-39.008-16.449-39.008-40.199
	v-92.3h-25.557v-6.681c18.31-9.38,33.599-26.14,45.088-49.89h6.511V1251.844"/>
<path fill="#1095C2" d="M47.317,1441.804c0.718,0.19,1.436,0.36,2.171,0.54v0.87C10.791,1460.104,0,1475.244,0,1492.134
	c0,28.141,30.552,47.061,74.644,47.061c52.237,0,93.387-28.45,93.387-64.381c0-10.819-3.436-18.18-12.454-27.279
	c-21.294-21.96-100.929-21.96-112.932-36.471c-2.14-2.64-2.996-3.52-2.996-8.789c0-9.681,25.706-27.71,49.271-29.03
	c31.697-1.75,55.305-30.8,56.469-61.56c0.447-11.78-1.211-24.74-10.868-40.15l18.139-39.221l-5.951-2.699
	c0,0-17.204,17.41-26.463,18.2c-9.366,0.789-13.144,0.76-20.434,0.31c-7.292-0.21-14.588-0.65-20.165-0.65
	c-36.887,0-64.22,27.7-64.22,64.961c0,28.93,17.084,50.399,47.498,58.729v0.87c-29.714,10.35-46.449,23.91-46.449,41.85
	C16.476,1426.554,28.05,1436.774,47.317,1441.804 M42.76,1309.364c0-31.561,15.059-53.04,37.867-53.04
	c22.37,0,37.43,21.479,37.43,53.04c0,35.939-15.489,56.1-37.866,56.1C57.819,1365.464,42.76,1343.114,42.76,1309.364
	 M63.088,1447.534c72.788,12.57,89.06,21.65,89.06,40.7c0,20.35-23.555,34.2-56.955,34.2c-43.233,0-76.204-16.45-76.204-38.53
	C18.989,1468.314,34.833,1455.334,63.088,1447.534"/>
<path d="M1478.521,1232.044c0-13.55,10-23.76,22.82-23.76c12.659,0,22.659,10.21,22.659,23.76c0,13.77-10,23.91-22.659,23.91
	C1488.521,1255.954,1478.521,1245.813,1478.521,1232.044 M1501.341,1260.714c15.249,0,28.289-12.11,28.289-28.67
	c0-16.42-13.04-28.53-28.289-28.53c-15.41,0-28.451,12.11-28.451,28.53C1472.89,1248.604,1485.931,1260.714,1501.341,1260.714
	 M1495.41,1234.314h5.63l8.521,14.289h5.479l-9.189-14.52c4.739-0.6,8.38-3.18,8.38-9.08c0-6.51-3.79-9.38-11.42-9.38h-12.29v32.979
	h4.89V1234.314z M1495.41,1230.074v-10.22h6.66c3.41,0,7.04,0.76,7.04,4.85c0,5.07-3.7,5.37-7.85,5.37H1495.41"/>
</svg>
